<svg version="1.1" id="Layer_1" xmlns="http://www.w3.org/2000/svg" xmlns:xlink="http://www.w3.org/1999/xlink" x="0px" y="0px"
	 width="72.868px" height="80.5px" viewBox="5.867 -3 72.868 80.5" enable-background="new 5.867 -3 72.868 80.5"
	 xml:space="preserve">
<g>
	<polygon points="66.444,4.998 47.716,4.998 47.716,0 37.06,0 37.06,4.998 18.331,4.998 18.331,11.704 66.444,11.704 	"/>
	<path d="M66.444,15.32L66.444,15.32H18.331l0,0h-5.104v6.707h5.524l3.255,52.047H62.77l3.255-52.047h5.524V15.32H66.444z
		 M28.366,67.304l-2.827-45.216h5.979l0.941,45.216H28.366z M44.44,67.304h-4.104l-0.931-45.216h5.966L44.44,67.304z M56.411,67.304
		h-4.092l0.941-45.216h5.979L56.411,67.304z"/>
</g>
</svg>
