<svg version="1.1" id="Ebene_1" xmlns="http://www.w3.org/2000/svg" xmlns:xlink="http://www.w3.org/1999/xlink" x="0px" y="0px"
	 width="72px" height="68.5px" viewBox="13.5 0 72 68.5" enable-background="new 13.5 0 72 68.5" xml:space="preserve">
<rect x="48.759" y="9.159" fill="#FFFFFF" width="4.199" height="26.17"/>
<path fill="#FFFFFF" d="M50.858,59.552c-13.314,0-24.145-10.832-24.145-24.147c0-7.815,3.821-15.184,10.223-19.711l2.424,3.429
	c-5.29,3.741-8.449,9.829-8.449,16.282c0,10.999,8.948,19.947,19.946,19.947s19.945-8.947,19.945-19.947
	c0-6.453-3.158-12.54-8.447-16.281l2.424-3.429c6.401,4.528,10.223,11.896,10.223,19.71C75.003,48.719,64.172,59.552,50.858,59.552z
	"/>
</svg>
