<svg version="1.1" id="Calque_1" xmlns="http://www.w3.org/2000/svg" xmlns:xlink="http://www.w3.org/1999/xlink" x="0px" y="0px"
	 width="106.186px" height="100px" viewBox="0 0 106.186 100" enable-background="new 0 0 106.186 100" xml:space="preserve">
<g>
	<path fill="none" stroke="#9D9D9D" stroke-width="4" stroke-miterlimit="10" d="M44.156,19.119
		C27.921,25.227,15.988,39.93,15.988,64.22h76.558c0-24.292-11.934-38.996-28.169-45.101"/>
	<path fill="none" stroke="#9D9D9D" stroke-width="4" stroke-miterlimit="10" d="M18.06,64.037c0,0-6.092,0-6.092,6.092
		c0,6.092,0,15.792,0,15.792s0,6.091,6.092,6.091s73.098,0,73.098,0s6.091,0,6.091-6.091c0-6.092,0-15.792,0-15.792
		s0-6.092-6.091-6.092C85.066,64.037,18.06,64.037,18.06,64.037z"/>
	<rect x="44.23" y="73.737" fill="none" stroke="#9D9D9D" stroke-width="4" stroke-miterlimit="10" width="20.757" height="8.575"/>
	<line fill="none" stroke="#9D9D9D" stroke-width="4" stroke-miterlimit="10" x1="24.152" y1="64.037" x2="24.152" y2="92.012"/>
	<line fill="none" stroke="#9D9D9D" stroke-width="4" stroke-miterlimit="10" x1="36.333" y1="64.037" x2="36.333" y2="92.012"/>
	<line fill="none" stroke="#9D9D9D" stroke-width="4" stroke-miterlimit="10" x1="48.141" y1="64.003" x2="48.141" y2="74.08"/>
	<line fill="none" stroke="#9D9D9D" stroke-width="4" stroke-miterlimit="10" x1="61.077" y1="64.003" x2="61.077" y2="74.08"/>
	<line fill="none" stroke="#9D9D9D" stroke-width="4" stroke-miterlimit="10" x1="72.883" y1="64.037" x2="72.883" y2="92.012"/>
	<line fill="none" stroke="#9D9D9D" stroke-width="4" stroke-miterlimit="10" x1="85.066" y1="64.037" x2="85.066" y2="92.012"/>
	<line fill="none" stroke="#9D9D9D" stroke-width="4" stroke-miterlimit="10" x1="48.517" y1="82.312" x2="48.517" y2="92.012"/>
	<line fill="none" stroke="#9D9D9D" stroke-width="4" stroke-miterlimit="10" x1="60.7" y1="82.312" x2="60.7" y2="92.012"/>
	<circle fill="none" stroke="#9D9D9D" stroke-width="4" stroke-miterlimit="10" cx="54.266" cy="16.227" r="11.226"/>
</g>
</svg>
