<svg version="1.1" id="Calque_1" xmlns="http://www.w3.org/2000/svg" xmlns:xlink="http://www.w3.org/1999/xlink" x="0px" y="0px"
	 width="106.186px" height="100px" viewBox="0 0 106.186 100" enable-background="new 0 0 106.186 100" xml:space="preserve">
<g>
	<rect x="99.213" y="26.719" fill="none" class='icon_8' stroke="#9D9D9D" stroke-width="4" class='icon_8' stroke-miterlimit="10" width="0" height="0"/>
	<circle fill="none" class='icon_8' stroke="#9D9D9D" stroke-width="4" stroke-miterlimit="10" cx="61.391" cy="54.307" r="21.505"/>
	<polygon fill="none" class='icon_8' stroke="#9D9D9D" stroke-width="4" stroke-miterlimit="10" points="82.896,26.719 78.747,14.785 
		44.034,14.785 39.885,26.719 6.972,26.719 6.972,85.215 99.213,85.215 99.213,26.719 	"/>
	<line fill="none" class='icon_8' stroke="#9D9D9D" stroke-width="4" stroke-miterlimit="10" x1="6.972" y1="46.873" x2="41.374" y2="46.873"/>
	<line fill="none" class='icon_8' stroke="#9D9D9D" stroke-width="4" stroke-miterlimit="10" x1="81.575" y1="46.873" x2="99.213" y2="46.873"/>
	
		<rect x="15.053" y="14.785" fill="none" class='icon_8' stroke="#9D9D9D" stroke-width="4" stroke-miterlimit="10" width="11.934" height="11.934"/>
	<circle fill="none" class='icon_8' stroke="#9D9D9D" stroke-width="4" stroke-miterlimit="10" cx="61.391" cy="54.307" r="12.792"/>
	
		<rect x="15.053" y="46.873" fill="none" class='icon_8' stroke="#9D9D9D" stroke-width="4" stroke-miterlimit="10" width="11.934" height="7.434"/>
	<path fill="none" class='icon_8' stroke="#9D9D9D" stroke-width="4" stroke-linecap="round" stroke-linejoin="round" stroke-miterlimit="10" d="
		M21.02,36.547l-0.01-0.01c0-0.008,0.004-0.012,0.004-0.012c0.012,0.002,0.016,0.006,0.016,0.006
		C21.03,36.541,21.026,36.547,21.02,36.547z"/>
</g>
</svg>
